<svg width="41" height="41" viewBox="0 0 41 41" fill="none" xmlns="http://www.w3.org/2000/svg">
    <path d="M0.875 1.5C0.875 0.670312 1.64107 0 2.58929 0H23.1607C24.1089 0 24.875 0.670312 24.875 1.5C24.875 2.32969 24.1089 3 23.1607 3H2.58929C1.64107 3 0.875 2.32969 0.875 1.5ZM0.875 9C0.875 8.17031 1.64107 7.5 2.58929 7.5H23.1607C24.1089 7.5 24.875 8.17031 24.875 9C24.875 9.82969 24.1089 10.5 23.1607 10.5H2.58929C1.64107 10.5 0.875 9.82969 0.875 9ZM24.875 16.5C24.875 17.3297 24.1089 18 23.1607 18H2.58929C1.64107 18 0.875 17.3297 0.875 16.5C0.875 15.6703 1.64107 15 2.58929 15H23.1607C24.1089 15 24.875 15.6703 24.875 16.5Z"
          fill="#D9D9D9"/>
</svg>
