<svg width="40" height="40" viewBox="0 0 40 40" fill="none" xmlns="http://www.w3.org/2000/svg">
<path d="M5 0C2.24219 0 0 2.5625 0 5.71429V34.2857C0 37.4375 2.24219 40 5 40H35C37.7578 40 40 37.4375 40 34.2857V5.71429C40 2.5625 37.7578 0 35 0H5ZM13.6719 12.7679C14.4062 11.9286 15.5937 11.9286 16.3203 12.7679L19.9922 16.9643L23.6641 12.7679C24.3984 11.9286 25.5859 11.9286 26.3125 12.7679C27.0391 13.6071 27.0469 14.9643 26.3125 15.7946L22.6406 19.9911L26.3125 24.1875C27.0469 25.0268 27.0469 26.3839 26.3125 27.2143C25.5781 28.0446 24.3906 28.0536 23.6641 27.2143L19.9922 23.0179L16.3203 27.2143C15.5859 28.0536 14.3984 28.0536 13.6719 27.2143C12.9453 26.375 12.9375 25.0179 13.6719 24.1875L17.3438 19.9911L13.6719 15.7946C12.9375 14.9554 12.9375 13.5982 13.6719 12.7679Z" fill="#AA4D4F"/>
</svg>
