<svg width="41" height="41" viewBox="0 0 41 41" fill="none" xmlns="http://www.w3.org/2000/svg">
<path d="M6.91675 20.5003C6.91675 16.4633 6.91675 14.4447 7.55262 12.8441C8.46744 10.5414 10.2912 8.71768 12.5939 7.80287C14.1945 7.16699 16.213 7.16699 20.2501 7.16699C24.2871 7.16699 26.3057 7.16699 27.9063 7.80287C30.209 8.71768 32.0327 10.5414 32.9475 12.8441C33.5834 14.4447 33.5834 16.4633 33.5834 20.5003V29.8337C33.5834 31.7193 33.5834 32.6621 32.9976 33.2479C32.4118 33.8337 31.469 33.8337 29.5834 33.8337H20.2501C16.213 33.8337 14.1945 33.8337 12.5939 33.1978C10.2912 32.283 8.46744 30.4593 7.55262 28.1565C6.91675 26.5559 6.91675 24.5374 6.91675 20.5003Z" fill="#D9D9D9" stroke="#D9D9D9" stroke-width="1.2"/>
<path d="M15.25 20.5L25.25 20.5" stroke="#222222" stroke-width="1.2" stroke-linecap="round" stroke-linejoin="round"/>
<path d="M20.25 15.5L20.25 25.5" stroke="#222222" stroke-width="1.2" stroke-linecap="round" stroke-linejoin="round"/>
</svg>
