<svg width="41" height="41" viewBox="0 0 41 41" fill="none" xmlns="http://www.w3.org/2000/svg">
    <path fill-rule="evenodd" clip-rule="evenodd"
          d="M32.9599 10.1299C34.0834 11.8113 34.0834 14.1521 34.0834 18.8337C34.0834 23.5152 34.0834 25.856 32.9599 27.5375C32.4735 28.2654 31.8485 28.8904 31.1205 29.3768C29.6516 30.3583 27.6796 30.4824 24.0834 30.4981V30.5003L21.6445 35.3781C21.276 36.1152 20.2242 36.1152 19.8557 35.3781L17.4167 30.5003V30.4981C13.8206 30.4824 11.8485 30.3583 10.3796 29.3768C9.65168 28.8904 9.02667 28.2654 8.54028 27.5375C7.41675 25.856 7.41675 23.5152 7.41675 18.8337C7.41675 14.1521 7.41675 11.8113 8.54028 10.1299C9.02667 9.40192 9.65168 8.77692 10.3796 8.29053C12.0611 7.16699 14.4019 7.16699 19.0834 7.16699H22.4167C27.0983 7.16699 29.4391 7.16699 31.1205 8.29053C31.8485 8.77692 32.4735 9.40192 32.9599 10.1299Z"
          fill="#D9D9D9"/>
    <path d="M32.9599 10.1299L32.461 10.4632V10.4632L32.9599 10.1299ZM32.9599 27.5375L32.461 27.2041L32.9599 27.5375ZM31.1205 29.3768L31.4539 29.8757H31.4539L31.1205 29.3768ZM24.0834 30.4981L24.0808 29.8981C23.7505 29.8995 23.4834 30.1677 23.4834 30.4981H24.0834ZM24.0834 30.5003L24.6201 30.7687C24.6617 30.6853 24.6834 30.5935 24.6834 30.5003H24.0834ZM21.6445 35.3781L22.1812 35.6465V35.6465L21.6445 35.3781ZM17.4167 30.5003H16.8167C16.8167 30.5935 16.8384 30.6853 16.8801 30.7687L17.4167 30.5003ZM17.4167 30.4981H18.0167C18.0167 30.1677 17.7497 29.8995 17.4194 29.8981L17.4167 30.4981ZM10.3796 29.3768L10.0463 29.8757H10.0463L10.3796 29.3768ZM8.54028 27.5375L8.0414 27.8708H8.0414L8.54028 27.5375ZM8.54028 10.1299L8.0414 9.79652L8.54028 10.1299ZM10.3796 8.29053L10.0463 7.79165L10.3796 8.29053ZM31.1205 8.29053L31.4539 7.79165V7.79165L31.1205 8.29053ZM34.6834 18.8337C34.6834 16.5054 34.6841 14.714 34.5399 13.296C34.3946 11.868 34.0974 10.7523 33.4588 9.79651L32.461 10.4632C32.9459 11.1889 33.2104 12.0843 33.3461 13.4175C33.4827 14.7606 33.4834 16.4804 33.4834 18.8337H34.6834ZM33.4588 27.8708C34.0974 26.915 34.3946 25.7993 34.5399 24.3713C34.6841 22.9533 34.6834 21.1619 34.6834 18.8337H33.4834C33.4834 21.1869 33.4827 22.9067 33.3461 24.2499C33.2104 25.583 32.9459 26.4784 32.461 27.2041L33.4588 27.8708ZM31.4539 29.8757C32.2473 29.3455 32.9286 28.6643 33.4588 27.8708L32.461 27.2041C32.0184 27.8665 31.4496 28.4353 30.7872 28.8779L31.4539 29.8757ZM24.086 31.0981C25.8813 31.0902 27.3109 31.0558 28.4819 30.894C29.6625 30.7308 30.619 30.4335 31.4539 29.8757L30.7872 28.8779C30.1531 29.3016 29.3892 29.5571 28.3175 29.7053C27.2362 29.8547 25.8817 29.8902 24.0808 29.8981L24.086 31.0981ZM24.6834 30.5003V30.4981H23.4834V30.5003H24.6834ZM22.1812 35.6465L24.6201 30.7687L23.5468 30.232L21.1079 35.1098L22.1812 35.6465ZM19.319 35.6465C19.9086 36.8257 21.5915 36.8257 22.1812 35.6465L21.1079 35.1098C20.9604 35.4046 20.5397 35.4046 20.3923 35.1098L19.319 35.6465ZM16.8801 30.7687L19.319 35.6465L20.3923 35.1098L17.9534 30.232L16.8801 30.7687ZM16.8167 30.4981V30.5003H18.0167V30.4981H16.8167ZM10.0463 29.8757C10.8811 30.4335 11.8377 30.7308 13.0183 30.894C14.1893 31.0558 15.6189 31.0902 17.4141 31.0981L17.4194 29.8981C15.6184 29.8902 14.264 29.8547 13.1826 29.7053C12.1109 29.5571 11.347 29.3016 10.713 28.8779L10.0463 29.8757ZM8.0414 27.8708C8.57157 28.6642 9.25282 29.3455 10.0463 29.8757L10.713 28.8779C10.0505 28.4353 9.48178 27.8665 9.03917 27.2041L8.0414 27.8708ZM6.81675 18.8337C6.81675 21.1619 6.81602 22.9533 6.96027 24.3713C7.10554 25.7993 7.40278 26.915 8.0414 27.8708L9.03917 27.2041C8.55425 26.4784 8.28973 25.583 8.15411 24.2499C8.01747 22.9067 8.01675 21.1869 8.01675 18.8337H6.81675ZM8.0414 9.79652C7.40278 10.7523 7.10554 11.868 6.96027 13.296C6.81602 14.714 6.81675 16.5054 6.81675 18.8337H8.01675C8.01675 16.4804 8.01747 14.7606 8.15411 13.4175C8.28973 12.0843 8.55425 11.1889 9.03917 10.4632L8.0414 9.79652ZM10.0463 7.79165C9.25282 8.32181 8.57157 9.00307 8.0414 9.79652L9.03917 10.4632C9.48178 9.80078 10.0505 9.23202 10.713 8.78941L10.0463 7.79165ZM19.0834 6.56699C16.7551 6.56699 14.9638 6.56627 13.5458 6.71051C12.1178 6.85578 11.002 7.15303 10.0463 7.79165L10.713 8.78941C11.4387 8.30449 12.3341 8.03997 13.6672 7.90435C15.0104 7.76772 16.7302 7.76699 19.0834 7.76699V6.56699ZM22.4167 6.56699H19.0834V7.76699H22.4167V6.56699ZM31.4539 7.79165C30.4981 7.15303 29.3824 6.85578 27.9544 6.71051C26.5364 6.56627 24.745 6.56699 22.4167 6.56699V7.76699C24.77 7.76699 26.4898 7.76772 27.8329 7.90435C29.1661 8.03997 30.0615 8.30449 30.7872 8.78941L31.4539 7.79165ZM33.4588 9.79652C32.9286 9.00307 32.2473 8.32181 31.4539 7.79165L30.7872 8.78941C31.4496 9.23203 32.0184 9.80078 32.461 10.4632L33.4588 9.79652Z"
          fill="#D9D9D9"/>
    <circle cx="27.4167" cy="18.8337" r="1.66667" fill="#222222" stroke="#222222" stroke-width="0.2"
            stroke-linecap="round"/>
    <ellipse cx="20.7499" cy="18.8337" rx="1.66667" ry="1.66667" fill="#222222" stroke="#222222" stroke-width="0.2"
             stroke-linecap="round"/>
    <ellipse cx="14.0834" cy="18.8337" rx="1.66667" ry="1.66667" fill="#222222" stroke="#222222" stroke-width="0.2"
             stroke-linecap="round"/>
</svg>
