<svg width="28" height="30" viewBox="0 0 28 30" fill="none" xmlns="http://www.w3.org/2000/svg">
<path fill-rule="evenodd" clip-rule="evenodd" d="M26.2098 3.62961C27.3333 5.3111 27.3333 7.65187 27.3333 12.3334C27.3333 17.015 27.3333 19.3557 26.2098 21.0372C25.7234 21.7652 25.0984 22.3902 24.3705 22.8765C22.9015 23.858 20.9295 23.9821 17.3333 23.9978V24.0001L14.8944 28.8779C14.5259 29.6149 13.4741 29.6149 13.1056 28.8779L10.6667 24.0001V23.9978C7.07049 23.9821 5.09844 23.858 3.62952 22.8765C2.90159 22.3902 2.27658 21.7652 1.79019 21.0372C0.666656 19.3557 0.666656 17.015 0.666656 12.3334C0.666656 7.65187 0.666656 5.3111 1.79019 3.62961C2.27658 2.90168 2.90159 2.27667 3.62952 1.79028C5.31101 0.666748 7.65178 0.666748 12.3333 0.666748H15.6667C20.3482 0.666748 22.689 0.666748 24.3705 1.79028C25.0984 2.27667 25.7234 2.90168 26.2098 3.62961Z" fill="#D9D9D9"/>
</svg>
