<svg width="26" height="28" viewBox="0 0 26 28" fill="none" xmlns="http://www.w3.org/2000/svg">
<path d="M25.5 14C25.5 21.4914 19.8693 27.5 13 27.5C6.13069 27.5 0.5 21.4914 0.5 14C0.5 6.50862 6.13069 0.5 13 0.5C19.8693 0.5 25.5 6.50862 25.5 14Z" fill="white" stroke="black"/>
<path fill-rule="evenodd" clip-rule="evenodd" d="M4.72436 10.2234C4.66675 11.1565 4.66675 12.285 4.66675 13.6667V14H11.4143C11.137 13.8694 10.8336 13.7833 10.5129 13.7513L8.83342 13.5833C8.3038 13.5304 8.039 13.5039 7.81343 13.4546C6.21516 13.1056 4.99815 11.8216 4.72436 10.2234ZM21.2076 9.44122L20.9167 18.1667C20.1164 18.1667 19.3488 17.8487 18.7829 17.2828L17.8437 16.3436C17.7545 16.2544 17.7099 16.2098 17.6702 16.1741C16.9099 15.491 15.7569 15.491 14.9966 16.1741C14.9569 16.2098 14.9123 16.2544 14.8231 16.3436L14.1789 16.9879C13.7439 17.4229 13.0001 17.1148 13.0001 16.4996L13.0001 22.3333H13.3334C17.1047 22.3333 18.9903 22.3333 20.1618 21.1618C21.3334 19.9902 21.3334 18.1046 21.3334 14.3333V13.6667C21.3334 11.8741 21.3334 10.5076 21.2076 9.44122Z" fill="#222222"/>
<path d="M5.66707 13C5.66919 11.4361 5.68518 10.2967 5.80428 9.41085C5.93582 8.43248 6.17641 7.91438 6.54543 7.54537C6.91445 7.17635 7.43254 6.93575 8.41091 6.80422C9.41804 6.66881 10.7529 6.66669 12.6667 6.66669H13.3334C15.2473 6.66669 16.5821 6.66881 17.5893 6.80422C18.5676 6.93575 19.0857 7.17635 19.4547 7.54537C19.8238 7.91438 20.0643 8.43248 20.1959 9.41085C20.3313 10.418 20.3334 11.7528 20.3334 13.6667V14.3334C20.3334 16.2472 20.3313 17.5821 20.1959 18.5892C20.0643 19.5676 19.8238 20.0857 19.4547 20.4547C19.0857 20.8237 18.5676 21.0643 17.5893 21.1958C16.7034 21.3149 15.564 21.3309 14.0001 21.333V16C14.0001 15.9819 14.0001 15.9637 14.0001 15.9456C14.0002 15.5215 14.0003 15.1094 13.9546 14.7695C13.903 14.3863 13.7775 13.949 13.4143 13.5858C13.0511 13.2226 12.6138 13.0971 12.2306 13.0455C11.8907 12.9998 11.4786 12.9999 11.0545 13C11.0364 13 11.0182 13 11.0001 13H5.66707Z" stroke="#222222" stroke-width="2"/>
<circle cx="16.3334" cy="10.6667" r="1.66667" fill="#222222"/>
<path d="M9.66675 17.3333V16.3333H10.6667V17.3333H9.66675ZM6.12478 21.4475C5.69351 21.7925 5.06422 21.7226 4.71921 21.2913C4.3742 20.8601 4.44412 20.2308 4.87539 19.8858L6.12478 21.4475ZM8.66675 21.5V17.3333H10.6667V21.5H8.66675ZM9.66675 18.3333H5.50008V16.3333H9.66675V18.3333ZM10.2914 18.1142L6.12478 21.4475L4.87539 19.8858L9.04205 16.5524L10.2914 18.1142Z" fill="#222222"/>
</svg>
