<svg width="26" height="25" viewBox="0 0 26 25" fill="none" xmlns="http://www.w3.org/2000/svg">
<path d="M10.9276 5.90992L12.6119 7.15444L13.5722 5.29333C14.3209 3.84226 15.7327 2.70465 17.3616 2.32486C20.2167 1.65921 22.9534 3.3611 23.6191 6.21614C24.0318 7.98619 23.6574 9.90981 22.4208 12.4278C21.1699 14.9748 19.1723 17.869 16.63 21.5439L16.6281 21.5468L16.131 22.2682L15.3766 21.8505C15.3759 21.8502 15.3752 21.8498 15.3745 21.8494C11.4682 19.6717 8.39632 17.9567 6.1475 16.224C3.92398 14.5108 2.73751 12.951 2.32482 11.1809C1.65917 8.32584 3.36105 5.58909 6.21609 4.92344C7.84502 4.54366 9.61433 4.9396 10.9276 5.90992Z" stroke="#D9D9D9" stroke-width="3.56676"/>
</svg>
