<svg width="25" height="19" viewBox="0 0 25 19" fill="none" xmlns="http://www.w3.org/2000/svg">
<path d="M0.125 2C0.125 1.17031 0.891071 0.5 1.83929 0.5H22.4107C23.3589 0.5 24.125 1.17031 24.125 2C24.125 2.82969 23.3589 3.5 22.4107 3.5H1.83929C0.891071 3.5 0.125 2.82969 0.125 2ZM0.125 9.5C0.125 8.67031 0.891071 8 1.83929 8H22.4107C23.3589 8 24.125 8.67031 24.125 9.5C24.125 10.3297 23.3589 11 22.4107 11H1.83929C0.891071 11 0.125 10.3297 0.125 9.5ZM24.125 17C24.125 17.8297 23.3589 18.5 22.4107 18.5H1.83929C0.891071 18.5 0.125 17.8297 0.125 17C0.125 16.1703 0.891071 15.5 1.83929 15.5H22.4107C23.3589 15.5 24.125 16.1703 24.125 17Z" fill="#D9D9D9"/>
</svg>
