<svg width="24" height="24" viewBox="0 0 24 24" fill="none" xmlns="http://www.w3.org/2000/svg">
<path d="M17.0198 0.879795L14.7485 3.15084L20.8489 9.25075L23.1201 6.97971C24.2933 5.80665 24.2933 3.90629 23.1201 2.73323L21.2713 0.879795C20.0981 -0.293265 18.1976 -0.293265 17.0244 0.879795H17.0198ZM13.688 4.21128L2.74954 15.1536C2.26151 15.6416 1.90487 16.2469 1.70778 16.9085L0.0466008 22.5532C-0.0707143 22.9521 0.0372156 23.3791 0.328157 23.67C0.619099 23.9609 1.04613 24.0688 1.4403 23.9562L7.08551 22.2952C7.74716 22.0981 8.35251 21.7415 8.84054 21.2535L19.7884 10.3112L13.688 4.21128Z" fill="#222222"/>
</svg>
